<svg xmlns="http://www.w3.org/2000/svg" xmlns:xlink="http://www.w3.org/1999/xlink" xml:space="preserve" version="1.1" style="shape-rendering:geometricPrecision;text-rendering:geometricPrecision;image-rendering:optimizeQuality;" viewBox="0 0 333 416.25" x="0px" y="0px" fill-rule="evenodd" clip-rule="evenodd"><defs><style type="text/css">
   
    .fil0 {fill:black}
   
  </style></defs><g><path class="fil0" d="M107 6l120 0c17,0 31,14 31,32l0 258c0,17 -14,31 -31,31l-120 0c-18,0 -32,-14 -32,-31l0 -258c0,-18 14,-32 32,-32zm-6 47l132 0 0 213 -132 0 0 -213zm66 229c8,0 15,7 15,15 0,9 -7,15 -15,15 -9,0 -16,-6 -16,-15 0,-8 7,-15 16,-15z"/></g><text x="0" y="348" fill="#000000" font-size="5px" font-weight="bold" font-family="'Helvetica Neue', Helvetica, Arial-Unicode, Arial, Sans-serif">Created by Aa Nafiz</text><text x="0" y="353" fill="#000000" font-size="5px" font-weight="bold" font-family="'Helvetica Neue', Helvetica, Arial-Unicode, Arial, Sans-serif">from the Noun Project</text></svg>