<svg xmlns="http://www.w3.org/2000/svg" xmlns:xlink="http://www.w3.org/1999/xlink" version="1.1" x="0px" y="0px" viewBox="0 0 95 118.75" enable-background="new 0 0 95 95" xml:space="preserve"><g><path d="M47.5,62.137c9.573,0,17.361-7.789,17.361-17.362c0-9.573-7.788-17.361-17.361-17.361s-17.361,7.788-17.361,17.361   C30.139,54.348,37.927,62.137,47.5,62.137z"/><path d="M17.578,77.552l1.922,1.694c0.003,0.002,0.005,0.006,0.009,0.009c7.738,6.826,17.679,10.584,27.991,10.584   s20.253-3.759,27.991-10.584c0.004-0.003,0.006-0.006,0.009-0.009l1.922-1.694l-0.064-0.056C85.316,69.57,89.84,58.78,89.84,47.5   c0-23.346-18.994-42.339-42.34-42.339S5.16,24.154,5.16,47.5c0,11.28,4.523,22.07,12.482,29.996L17.578,77.552z M9.702,47.5   c0-20.842,16.956-37.798,37.798-37.798S85.298,26.658,85.298,47.5c0,10.186-4.128,19.926-11.389,27.023   c-7.488-5.984-16.786-9.26-26.409-9.26s-18.921,3.276-26.409,9.26C13.83,67.426,9.702,57.686,9.702,47.5z"/></g><text x="0" y="110" fill="#000000" font-size="5px" font-weight="bold" font-family="'Helvetica Neue', Helvetica, Arial-Unicode, Arial, Sans-serif">Created by Guilherme Furtado</text><text x="0" y="115" fill="#000000" font-size="5px" font-weight="bold" font-family="'Helvetica Neue', Helvetica, Arial-Unicode, Arial, Sans-serif">from the Noun Project</text></svg>