<svg xmlns="http://www.w3.org/2000/svg" data-name="Layer 1" viewBox="0 0 32 40" x="0px" y="0px"><path d="M28,5H4A3.0033,3.0033,0,0,0,1,8V24a3.0033,3.0033,0,0,0,3,3H28a3.0033,3.0033,0,0,0,3-3V8A3.0033,3.0033,0,0,0,28,5ZM3,8.1752l8.2986,7.1117L3,23.5859Zm13.65,7.9493a.9938.9938,0,0,1-1.3018-.0005L4.7014,7H27.2985Zm-3.8288.4675,1.2253,1.05a3.0791,3.0791,0,0,0,3.9052.0005l1.2262-1.0507L27.586,25H4.414Zm7.88-1.3053L29,8.1752V23.5859Z"/><text x="0" y="47" fill="#000000" font-size="5px" font-weight="bold" font-family="'Helvetica Neue', Helvetica, Arial-Unicode, Arial, Sans-serif">Created by iconpixel</text><text x="0" y="52" fill="#000000" font-size="5px" font-weight="bold" font-family="'Helvetica Neue', Helvetica, Arial-Unicode, Arial, Sans-serif">from the Noun Project</text></svg>